# xmcd
#
# Track frame offsets:
#	150
#	9638
#	21861
#	34497
#	52699
#	64517
#	79013
#	95293
#	112165
#	126939
#	145650
#	160888
#	177399
#	190794
#	204471
#	218563
#	232327
#	246305
#	262361
#	278903
#
# Disc length: 3919 seconds
#
# Revision: 4
# Processed by: cddbd v1.5.2PL0 Copyright (c) Steve Scherf et al.
# Submitted via: audiograbber 1.83.01
#
DISCID=250f4d14
DTITLE=Various Artist - 100 Hits - Country Greats [Disc 3]
DYEAR=2015
DGENRE=Country
TTITLE0=Willie Nelson - If You've Got The Money, I've Got The Time
TTITLE1=George Jones - The Door
TTITLE2=Waylon Jennings - I'm A Ramblin' Man
TTITLE3=Billy Swan - I Can Help
TTITLE4=Johnny Paycheck - Take This Job And Shove It
TTITLE5=Larry Gatlin And The Gatlin Brothers - I Just Wish You Were Someone I L
TTITLE5=ove
TTITLE6=Charlie Daniels Band - The Devil Went Down To Georgia
TTITLE7=Ronnie Milsap - Smoky Mountain Rain
TTITLE8=Roseanne Cash - Seven Year Ache
TTITLE9=K.T. Oslin - I'll Always Come Back
TTITLE10=Ricky Van Shelton - Life Turned Her That Way
TTITLE11=Alabama - Mountain Music
TTITLE12=Merle Haggard - My Favourite Memory
TTITLE13=Ricky Skaggs - Crying My Heart Out Over You
TTITLE14=Exile - Woke Up In Love
TTITLE15=The Highwaymen - Highwayman
TTITLE16=Clint Black - A Better Man
TTITLE17=Don Williams - I've Been Loved By The Best
TTITLE18=Shenandoah - Next To You, Next To Me
TTITLE19=Mary Chapin Carpenter - Passionate Kisses
EXTD=
EXTT0=
EXTT1=
EXTT2=
EXTT3=
EXTT4=
EXTT5=
EXTT6=
EXTT7=
EXTT8=
EXTT9=
EXTT10=
EXTT11=
EXTT12=
EXTT13=
EXTT14=
EXTT15=
EXTT16=
EXTT17=
EXTT18=
EXTT19=
PLAYORDER=
